# MagicaVoxel @ Ephtracy

# group
o 

# material
mtllib Chicken.mtl
usemtl palette

# normals
vn -1 0 0
vn 1 0 0
vn 0 0 1
vn 0 0 -1
vn 0 -1 0
vn 0 1 0

# texcoords
vt 0.00195312 0.5
vt 0.0449219 0.5
vt 0.208984 0.5
vt 0.994141 0.5

# verts
v -0.5 0.5 0.6
v -0.5 0.5 -5.96046e-08
v -0.5 0.8 0.6
v -0.5 0.8 -5.96046e-08
v -0.4 0 0.4
v -0.4 0 -0.1
v -0.4 0.1 0.4
v -0.4 0.1 -0.1
v -0.3 0.1 0.3
v -0.3 0.1 0.2
v -0.3 0.4 0.7
v -0.3 0.4 0.3
v -0.3 0.4 0.2
v -0.3 0.4 -0.3
v -0.3 0.5 0.6
v -0.3 0.5 -5.96046e-08
v -0.3 0.8 0.6
v -0.3 0.8 -5.96046e-08
v -0.3 0.9 0.7
v -0.3 0.9 0.4
v -0.3 1.4 -5.96046e-08
v -0.3 1.4 -0.1
v -0.3 1.5 -5.96046e-08
v -0.3 1.5 -0.1
v -0.3 1.7 0.4
v -0.3 1.7 -0.3
v -0.2 0 0.1
v -0.2 0 -0.1
v -0.2 0.1 0.1
v -0.2 0.1 -0.1
v -0.2 0.4 0.8
v -0.2 0.4 0.7
v -0.2 0.9 0.8
v -0.2 0.9 0.7
v -0.1 1.1 -0.3
v -0.1 1.1 -0.5
v -0.1 1.3 -0.3
v -0.1 1.3 -0.5
v -0.1 1.3 -0.6
v -0.1 1.5 -0.3
v -0.1 1.5 -0.6
v -0.1 1.7 0.2
v -0.1 1.7 -0.2
v -0.1 1.9 0.2
v -0.1 1.9 -0.2
v 0.1 0 0.4
v 0.1 0 -0.1
v 0.1 0.1 0.4
v 0.1 0.1 -0.1
v 0.2 0.1 0.3
v 0.2 0.1 0.2
v 0.2 0.4 0.3
v 0.2 0.4 0.2
v 0.3 0 0.1
v 0.3 0 -0.1
v 0.3 0.1 0.1
v 0.3 0.1 -0.1
v -0.3 0 0.1
v -0.3 0 -0.1
v -0.3 0.1 0.1
v -0.3 0.1 -0.1
v -0.2 0.1 0.3
v -0.2 0.1 0.2
v -0.2 0.4 0.3
v -0.2 0.4 0.2
v -0.1 0 0.4
v -0.1 0 -0.1
v -0.1 0.1 0.4
v -0.1 0.1 -0.1
v 0.1 1.1 -0.3
v 0.1 1.1 -0.5
v 0.1 1.3 -0.3
v 0.1 1.3 -0.5
v 0.1 1.3 -0.6
v 0.1 1.5 -0.3
v 0.1 1.5 -0.6
v 0.1 1.7 0.2
v 0.1 1.7 -0.2
v 0.1 1.9 0.2
v 0.1 1.9 -0.2
v 0.2 0 0.1
v 0.2 0 -0.1
v 0.2 0.1 0.1
v 0.2 0.1 -0.1
v 0.2 0.4 0.8
v 0.2 0.4 0.7
v 0.2 0.9 0.8
v 0.2 0.9 0.7
v 0.3 0.1 0.3
v 0.3 0.1 0.2
v 0.3 0.4 0.7
v 0.3 0.4 0.3
v 0.3 0.4 0.2
v 0.3 0.4 -0.3
v 0.3 0.5 0.6
v 0.3 0.5 -5.96046e-08
v 0.3 0.8 0.6
v 0.3 0.8 -5.96046e-08
v 0.3 0.9 0.7
v 0.3 0.9 0.4
v 0.3 1.4 -5.96046e-08
v 0.3 1.4 -0.1
v 0.3 1.5 -5.96046e-08
v 0.3 1.5 -0.1
v 0.3 1.7 0.4
v 0.3 1.7 -0.3
v 0.4 0 0.4
v 0.4 0 -0.1
v 0.4 0.1 0.4
v 0.4 0.1 -0.1
v 0.5 0.5 0.6
v 0.5 0.5 -5.96046e-08
v 0.5 0.8 0.6
v 0.5 0.8 -5.96046e-08
v -0.2 0.4 0.8
v -0.2 0.9 0.8
v 0.2 0.4 0.8
v 0.2 0.9 0.8
v -0.3 0.4 0.7
v -0.3 0.9 0.7
v -0.2 0.4 0.7
v -0.2 0.9 0.7
v 0.2 0.4 0.7
v 0.2 0.9 0.7
v 0.3 0.4 0.7
v 0.3 0.9 0.7
v -0.5 0.5 0.6
v -0.5 0.8 0.6
v -0.3 0.5 0.6
v -0.3 0.8 0.6
v 0.3 0.5 0.6
v 0.3 0.8 0.6
v 0.5 0.5 0.6
v 0.5 0.8 0.6
v -0.4 0 0.4
v -0.4 0.1 0.4
v -0.3 0.9 0.4
v -0.3 1.7 0.4
v -0.1 0 0.4
v -0.1 0.1 0.4
v 0.1 0 0.4
v 0.1 0.1 0.4
v 0.3 0.9 0.4
v 0.3 1.7 0.4
v 0.4 0 0.4
v 0.4 0.1 0.4
v -0.3 0.1 0.3
v -0.3 0.4 0.3
v -0.2 0.1 0.3
v -0.2 0.4 0.3
v 0.2 0.1 0.3
v 0.2 0.4 0.3
v 0.3 0.1 0.3
v 0.3 0.4 0.3
v -0.1 1.7 0.2
v -0.1 1.9 0.2
v 0.1 1.7 0.2
v 0.1 1.9 0.2
v -0.3 0.1 0.2
v -0.3 0.4 0.2
v -0.2 0.1 0.2
v -0.2 0.4 0.2
v 0.2 0.1 0.2
v 0.2 0.4 0.2
v 0.3 0.1 0.2
v 0.3 0.4 0.2
v -0.3 0 0.1
v -0.3 0.1 0.1
v -0.2 0 0.1
v -0.2 0.1 0.1
v 0.2 0 0.1
v 0.2 0.1 0.1
v 0.3 0 0.1
v 0.3 0.1 0.1
v -0.5 0.5 -5.96046e-08
v -0.5 0.8 -5.96046e-08
v -0.3 0.5 -5.96046e-08
v -0.3 0.8 -5.96046e-08
v 0.3 0.5 -5.96046e-08
v 0.3 0.8 -5.96046e-08
v 0.5 0.5 -5.96046e-08
v 0.5 0.8 -5.96046e-08
v -0.4 0 -0.1
v -0.4 0.1 -0.1
v -0.3 0 -0.1
v -0.3 0.1 -0.1
v -0.2 0 -0.1
v -0.2 0.1 -0.1
v -0.1 0 -0.1
v -0.1 0.1 -0.1
v 0.1 0 -0.1
v 0.1 0.1 -0.1
v 0.2 0 -0.1
v 0.2 0.1 -0.1
v 0.3 0 -0.1
v 0.3 0.1 -0.1
v 0.4 0 -0.1
v 0.4 0.1 -0.1
v -0.1 1.7 -0.2
v -0.1 1.9 -0.2
v 0.1 1.7 -0.2
v 0.1 1.9 -0.2
v -0.3 0.4 -0.3
v -0.3 1.7 -0.3
v -0.1 1.1 -0.3
v -0.1 1.3 -0.3
v -0.1 1.5 -0.3
v 0.1 1.1 -0.3
v 0.1 1.3 -0.3
v 0.1 1.5 -0.3
v 0.3 0.4 -0.3
v 0.3 1.7 -0.3
v -0.1 1.1 -0.5
v -0.1 1.3 -0.5
v 0.1 1.1 -0.5
v 0.1 1.3 -0.5
v -0.1 1.3 -0.6
v -0.1 1.5 -0.6
v 0.1 1.3 -0.6
v 0.1 1.5 -0.6
v -0.4 0 0.4
v -0.1 0 0.4
v 0.1 0 0.4
v 0.4 0 0.4
v -0.3 0 0.1
v -0.2 0 0.1
v 0.2 0 0.1
v 0.3 0 0.1
v -0.4 0 -0.1
v -0.3 0 -0.1
v -0.2 0 -0.1
v -0.1 0 -0.1
v 0.1 0 -0.1
v 0.2 0 -0.1
v 0.3 0 -0.1
v 0.4 0 -0.1
v -0.2 0.4 0.8
v 0.2 0.4 0.8
v -0.3 0.4 0.7
v -0.2 0.4 0.7
v 0.2 0.4 0.7
v 0.3 0.4 0.7
v -0.3 0.4 0.3
v -0.2 0.4 0.3
v 0.2 0.4 0.3
v 0.3 0.4 0.3
v -0.3 0.4 0.2
v -0.2 0.4 0.2
v 0.2 0.4 0.2
v 0.3 0.4 0.2
v -0.3 0.4 -0.3
v 0.3 0.4 -0.3
v -0.5 0.5 0.6
v -0.3 0.5 0.6
v 0.3 0.5 0.6
v 0.5 0.5 0.6
v -0.5 0.5 -5.96046e-08
v -0.3 0.5 -5.96046e-08
v 0.3 0.5 -5.96046e-08
v 0.5 0.5 -5.96046e-08
v -0.1 1.1 -0.3
v 0.1 1.1 -0.3
v -0.1 1.1 -0.5
v 0.1 1.1 -0.5
v -0.1 1.3 -0.5
v 0.1 1.3 -0.5
v -0.1 1.3 -0.6
v 0.1 1.3 -0.6
v -0.4 0.1 0.4
v -0.1 0.1 0.4
v 0.1 0.1 0.4
v 0.4 0.1 0.4
v -0.3 0.1 0.3
v -0.2 0.1 0.3
v 0.2 0.1 0.3
v 0.3 0.1 0.3
v -0.3 0.1 0.2
v -0.2 0.1 0.2
v 0.2 0.1 0.2
v 0.3 0.1 0.2
v -0.3 0.1 0.1
v -0.2 0.1 0.1
v 0.2 0.1 0.1
v 0.3 0.1 0.1
v -0.4 0.1 -0.1
v -0.3 0.1 -0.1
v -0.2 0.1 -0.1
v -0.1 0.1 -0.1
v 0.1 0.1 -0.1
v 0.2 0.1 -0.1
v 0.3 0.1 -0.1
v 0.4 0.1 -0.1
v -0.5 0.8 0.6
v -0.3 0.8 0.6
v 0.3 0.8 0.6
v 0.5 0.8 0.6
v -0.5 0.8 -5.96046e-08
v -0.3 0.8 -5.96046e-08
v 0.3 0.8 -5.96046e-08
v 0.5 0.8 -5.96046e-08
v -0.2 0.9 0.8
v 0.2 0.9 0.8
v -0.3 0.9 0.7
v -0.2 0.9 0.7
v 0.2 0.9 0.7
v 0.3 0.9 0.7
v -0.3 0.9 0.4
v 0.3 0.9 0.4
v -0.1 1.5 -0.3
v 0.1 1.5 -0.3
v -0.1 1.5 -0.6
v 0.1 1.5 -0.6
v -0.3 1.7 0.4
v 0.3 1.7 0.4
v -0.1 1.7 0.2
v 0.1 1.7 0.2
v -0.1 1.7 -0.2
v 0.1 1.7 -0.2
v -0.3 1.7 -0.3
v 0.3 1.7 -0.3
v -0.1 1.9 0.2
v 0.1 1.9 0.2
v -0.1 1.9 -0.2
v 0.1 1.9 -0.2

# faces
f 3/1/1 2/1/1 1/1/1
f 4/1/1 2/1/1 3/1/1
f 7/3/1 6/3/1 5/3/1
f 8/3/1 6/3/1 7/3/1
f 12/3/1 10/3/1 9/3/1
f 13/3/1 10/3/1 12/3/1
f 15/1/1 12/1/1 11/1/1
f 15/1/1 14/1/1 13/1/1
f 15/1/1 13/1/1 12/1/1
f 16/1/1 14/1/1 15/1/1
f 17/1/1 15/1/1 11/1/1
f 18/1/1 14/1/1 16/1/1
f 19/1/1 17/1/1 11/1/1
f 19/1/1 18/1/1 17/1/1
f 20/1/1 18/1/1 19/1/1
f 21/1/1 14/1/1 18/1/1
f 21/1/1 18/1/1 20/1/1
f 22/1/1 14/1/1 21/1/1
f 23/1/1 21/1/1 20/1/1
f 23/4/1 22/4/1 21/4/1
f 24/1/1 14/1/1 22/1/1
f 24/4/1 22/4/1 23/4/1
f 25/1/1 23/1/1 20/1/1
f 25/1/1 24/1/1 23/1/1
f 26/1/1 14/1/1 24/1/1
f 26/1/1 24/1/1 25/1/1
f 29/3/1 28/3/1 27/3/1
f 30/3/1 28/3/1 29/3/1
f 33/1/1 32/1/1 31/1/1
f 34/1/1 32/1/1 33/1/1
f 37/2/1 36/2/1 35/2/1
f 38/2/1 36/2/1 37/2/1
f 40/3/1 38/3/1 37/3/1
f 40/3/1 39/3/1 38/3/1
f 41/3/1 39/3/1 40/3/1
f 44/2/1 43/2/1 42/2/1
f 45/2/1 43/2/1 44/2/1
f 48/3/1 47/3/1 46/3/1
f 49/3/1 47/3/1 48/3/1
f 52/3/1 51/3/1 50/3/1
f 53/3/1 51/3/1 52/3/1
f 56/3/1 55/3/1 54/3/1
f 57/3/1 55/3/1 56/3/1
f 58/3/2 59/3/2 60/3/2
f 60/3/2 59/3/2 61/3/2
f 62/3/2 63/3/2 64/3/2
f 64/3/2 63/3/2 65/3/2
f 66/3/2 67/3/2 68/3/2
f 68/3/2 67/3/2 69/3/2
f 70/2/2 71/2/2 72/2/2
f 72/2/2 71/2/2 73/2/2
f 72/3/2 73/3/2 75/3/2
f 73/3/2 74/3/2 75/3/2
f 75/3/2 74/3/2 76/3/2
f 77/2/2 78/2/2 79/2/2
f 79/2/2 78/2/2 80/2/2
f 81/3/2 82/3/2 83/3/2
f 83/3/2 82/3/2 84/3/2
f 85/1/2 86/1/2 87/1/2
f 87/1/2 86/1/2 88/1/2
f 89/3/2 90/3/2 92/3/2
f 92/3/2 90/3/2 93/3/2
f 91/1/2 92/1/2 95/1/2
f 93/1/2 94/1/2 95/1/2
f 92/1/2 93/1/2 95/1/2
f 95/1/2 94/1/2 96/1/2
f 91/1/2 95/1/2 97/1/2
f 96/1/2 94/1/2 98/1/2
f 91/1/2 97/1/2 99/1/2
f 97/1/2 98/1/2 99/1/2
f 99/1/2 98/1/2 100/1/2
f 98/1/2 94/1/2 101/1/2
f 100/1/2 98/1/2 101/1/2
f 101/1/2 94/1/2 102/1/2
f 100/1/2 101/1/2 103/1/2
f 101/4/2 102/4/2 103/4/2
f 102/1/2 94/1/2 104/1/2
f 103/4/2 102/4/2 104/4/2
f 100/1/2 103/1/2 105/1/2
f 103/1/2 104/1/2 105/1/2
f 104/1/2 94/1/2 106/1/2
f 105/1/2 104/1/2 106/1/2
f 107/3/2 108/3/2 109/3/2
f 109/3/2 108/3/2 110/3/2
f 111/1/2 112/1/2 113/1/2
f 113/1/2 112/1/2 114/1/2
f 117/1/3 116/1/3 115/1/3
f 118/1/3 116/1/3 117/1/3
f 121/1/3 120/1/3 119/1/3
f 122/1/3 120/1/3 121/1/3
f 125/1/3 124/1/3 123/1/3
f 126/1/3 124/1/3 125/1/3
f 129/1/3 128/1/3 127/1/3
f 130/1/3 128/1/3 129/1/3
f 133/1/3 132/1/3 131/1/3
f 134/1/3 132/1/3 133/1/3
f 139/3/3 136/3/3 135/3/3
f 140/3/3 136/3/3 139/3/3
f 143/1/3 138/1/3 137/1/3
f 144/1/3 138/1/3 143/1/3
f 145/3/3 142/3/3 141/3/3
f 146/3/3 142/3/3 145/3/3
f 149/3/3 148/3/3 147/3/3
f 150/3/3 148/3/3 149/3/3
f 153/3/3 152/3/3 151/3/3
f 154/3/3 152/3/3 153/3/3
f 157/2/3 156/2/3 155/2/3
f 158/2/3 156/2/3 157/2/3
f 159/3/4 160/3/4 161/3/4
f 161/3/4 160/3/4 162/3/4
f 163/3/4 164/3/4 165/3/4
f 165/3/4 164/3/4 166/3/4
f 167/3/4 168/3/4 169/3/4
f 169/3/4 168/3/4 170/3/4
f 171/3/4 172/3/4 173/3/4
f 173/3/4 172/3/4 174/3/4
f 175/1/4 176/1/4 177/1/4
f 177/1/4 176/1/4 178/1/4
f 179/1/4 180/1/4 181/1/4
f 181/1/4 180/1/4 182/1/4
f 183/3/4 184/3/4 185/3/4
f 185/3/4 184/3/4 186/3/4
f 187/3/4 188/3/4 189/3/4
f 189/3/4 188/3/4 190/3/4
f 191/3/4 192/3/4 193/3/4
f 193/3/4 192/3/4 194/3/4
f 195/3/4 196/3/4 197/3/4
f 197/3/4 196/3/4 198/3/4
f 199/2/4 200/2/4 201/2/4
f 201/2/4 200/2/4 202/2/4
f 203/1/4 204/1/4 205/1/4
f 205/1/4 204/1/4 206/1/4
f 206/1/4 204/1/4 207/1/4
f 203/1/4 205/1/4 208/1/4
f 207/1/4 204/1/4 210/1/4
f 208/1/4 209/1/4 211/1/4
f 209/1/4 210/1/4 211/1/4
f 203/1/4 208/1/4 211/1/4
f 210/1/4 204/1/4 212/1/4
f 211/1/4 210/1/4 212/1/4
f 213/2/4 214/2/4 215/2/4
f 215/2/4 214/2/4 216/2/4
f 217/3/4 218/3/4 219/3/4
f 219/3/4 218/3/4 220/3/4
f 225/3/5 222/3/5 221/3/5
f 226/3/5 222/3/5 225/3/5
f 227/3/5 224/3/5 223/3/5
f 228/3/5 224/3/5 227/3/5
f 229/3/5 225/3/5 221/3/5
f 230/3/5 225/3/5 229/3/5
f 231/3/5 222/3/5 226/3/5
f 232/3/5 222/3/5 231/3/5
f 233/3/5 227/3/5 223/3/5
f 234/3/5 227/3/5 233/3/5
f 235/3/5 224/3/5 228/3/5
f 236/3/5 224/3/5 235/3/5
f 240/1/5 238/1/5 237/1/5
f 241/1/5 238/1/5 240/1/5
f 243/1/5 240/1/5 239/1/5
f 243/1/5 242/1/5 241/1/5
f 243/1/5 241/1/5 240/1/5
f 244/1/5 242/1/5 243/1/5
f 245/1/5 242/1/5 244/1/5
f 246/1/5 242/1/5 245/1/5
f 248/1/5 245/1/5 244/1/5
f 249/1/5 245/1/5 248/1/5
f 251/1/5 248/1/5 247/1/5
f 251/1/5 250/1/5 249/1/5
f 251/1/5 249/1/5 248/1/5
f 252/1/5 250/1/5 251/1/5
f 257/1/5 254/1/5 253/1/5
f 258/1/5 254/1/5 257/1/5
f 259/1/5 256/1/5 255/1/5
f 260/1/5 256/1/5 259/1/5
f 263/2/5 262/2/5 261/2/5
f 264/2/5 262/2/5 263/2/5
f 267/3/5 266/3/5 265/3/5
f 268/3/5 266/3/5 267/3/5
f 269/3/6 270/3/6 273/3/6
f 273/3/6 270/3/6 274/3/6
f 271/3/6 272/3/6 275/3/6
f 275/3/6 272/3/6 276/3/6
f 269/3/6 273/3/6 277/3/6
f 274/3/6 270/3/6 278/3/6
f 271/3/6 275/3/6 279/3/6
f 276/3/6 272/3/6 280/3/6
f 269/3/6 277/3/6 281/3/6
f 277/3/6 278/3/6 281/3/6
f 278/3/6 270/3/6 282/3/6
f 281/3/6 278/3/6 282/3/6
f 279/3/6 280/3/6 283/3/6
f 271/3/6 279/3/6 283/3/6
f 280/3/6 272/3/6 284/3/6
f 283/3/6 280/3/6 284/3/6
f 269/3/6 281/3/6 285/3/6
f 285/3/6 281/3/6 286/3/6
f 282/3/6 270/3/6 287/3/6
f 287/3/6 270/3/6 288/3/6
f 271/3/6 283/3/6 289/3/6
f 289/3/6 283/3/6 290/3/6
f 284/3/6 272/3/6 291/3/6
f 291/3/6 272/3/6 292/3/6
f 293/1/6 294/1/6 297/1/6
f 297/1/6 294/1/6 298/1/6
f 295/1/6 296/1/6 299/1/6
f 299/1/6 296/1/6 300/1/6
f 301/1/6 302/1/6 304/1/6
f 304/1/6 302/1/6 305/1/6
f 303/1/6 304/1/6 307/1/6
f 305/1/6 306/1/6 307/1/6
f 304/1/6 305/1/6 307/1/6
f 307/1/6 306/1/6 308/1/6
f 309/3/6 310/3/6 311/3/6
f 311/3/6 310/3/6 312/3/6
f 313/1/6 314/1/6 315/1/6
f 315/1/6 314/1/6 316/1/6
f 313/1/6 315/1/6 317/1/6
f 316/1/6 314/1/6 318/1/6
f 313/1/6 317/1/6 319/1/6
f 317/1/6 318/1/6 319/1/6
f 318/1/6 314/1/6 320/1/6
f 319/1/6 318/1/6 320/1/6
f 321/2/6 322/2/6 323/2/6
f 323/2/6 322/2/6 324/2/6
